:version 1.10
:name ASF
:units
  mass 1
  length 1
  angle deg
:documentation
  ASF file generated by Kaydara
:root
  axis xyz
  order  tx ty tz rx ry rz
  position 0 0 0
  orientation 0 0 0
:bonedata
  begin
    id 1
    name SpineDummy
    direction 0.999998 -0.00179978 1.38929e-006
    length 3.60008
    axis 0 0 0 xyz
  end
  begin
    id 2
    name Spine
    direction 0.964365 0.262802 0.0305839
    length 8.13928
    axis 1.33928 -1.75354 15.2838 xyz
    dof rx ry rz
  end
  begin
    id 3
    name Spine1
    direction 0.811168 0.572065 0.12144
    length 7.14954
    axis 2.2224 -6.9761 35.2157 xyz
    dof rx ry rz
  end
  begin
    id 4
    name Neck
    direction 0 0 0
    length 0
    axis 2.2224 -6.9761 35.2157 xyz
    dof rx ry rz
  end
  begin
    id 5
    name HeadDummy
    direction 0.810939 0.572387 0.121455
    length 3.55534
    axis 2.2224 -6.9761 35.2157 xyz
  end
  begin
    id 6
    name Head
    direction 0.998226 -0.000232542 0.0595419
    length 7.35666
    axis -3.03688 -3.41352 -0.0133467 xyz
    dof rx ry rz
  end
  begin
    id 7
    name R_ClavicleDummy
    direction 0.531669 -0.194489 -0.824319
    length 2.49392
    axis 2.2224 -6.9761 35.2157 xyz
  end
  begin
    id 8
    name R_Clavicle
    direction -0.155119 0.0480802 -0.986725
    length 4.485
    axis -54.2764 80.6538 162.779 xyz
    dof rx ry rz
  end
  begin
    id 9
    name R_UpperArm
    direction -0.955567 0.200068 -0.216484
    length 10.1122
    axis -72.9943 12.5026 168.175 xyz
    dof rx ry rz
  end
  begin
    id 10
    name R_Forearm
    direction -0.61433 0.385743 0.688332
    length 9.39148
    axis -117.015 -43.4982 147.875 xyz
    dof rx ry rz
  end
  begin
    id 11
    name R_Hand
    direction -0.699429 0.0170333 0.714499
    length 3.66324
    axis -45.0303 -36.7097 175.478 xyz
    dof rx ry rz
  end
  begin
    id 12
    name L_ClavicleDummy
    direction 0.40287 -0.36502 0.839319
    length 2.49392
    axis 2.2224 -6.9761 35.2157 xyz
  end
  begin
    id 13
    name L_Clavicle
    direction -0.231271 -0.0726419 0.970174
    length 4.485
    axis 18.4357 -75.9711 -162.563 xyz
    dof rx ry rz
  end
  begin
    id 14
    name L_UpperArm
    direction -0.917494 0.144359 0.370629
    length 10.1122
    axis 56.0417 -21.7544 171.058 xyz
    dof rx ry rz
  end
  begin
    id 15
    name L_Forearm
    direction -0.496786 0.615074 -0.612281
    length 9.39148
    axis 89.8094 37.7546 128.927 xyz
    dof rx ry rz
  end
  begin
    id 16
    name L_Hand
    direction -0.409932 0.64962 -0.640274
    length 3.66324
    axis -0.424369 32.133 128.52 xyz
    dof rx ry rz
  end
  begin
    id 17
    name L_ThighDummy
    direction -1.84081e-006 1.87549e-006 1
    length 3.13049
    axis 0 0 0 xyz
  end
  begin
    id 18
    name L_Thigh
    direction -0.947739 0.307978 0.083308
    length 17.9961
    axis 173.219 -4.77873 161.998 xyz
    dof rx ry rz
  end
  begin
    id 19
    name L_Calf
    direction -0.728814 -0.684427 0.0197583
    length 13.3367
    axis 167.331 -1.13214 -136.799 xyz
    dof rx ry rz
  end
  begin
    id 20
    name L_Foot
    direction -0.9028 0.418719 0.0981191
    length 5.8674
    axis 163.436 11.5135 -155.37 xyz
    dof rx ry rz
  end
  begin
    id 21
    name L_Toe0
    direction -0.35341 0.886259 0.299411
    length 4.75286
    axis 169.316 -17.4222 111.74 xyz
    dof rx ry rz
  end
  begin
    id 22
    name R_ThighDummy
    direction 9.32778e-007 -8.82053e-007 -1
    length 3.13049
    axis 0 0 0 xyz
  end
  begin
    id 23
    name R_Thigh
    direction -0.925064 0.37528 -0.0585023
    length 17.9961
    axis -178.698 3.35385 157.919 xyz
    dof rx ry rz
  end
  begin
    id 24
    name R_Calf
    direction -0.68969 -0.718776 -0.0876886
    length 13.3367
    axis -160.504 5.03065 -133.817 xyz
    dof rx ry rz
  end
  begin
    id 25
    name R_Foot
    direction -0.857405 0.418858 -0.299022
    length 5.8674
    axis -161.328 4.38911 -154.413 xyz
    dof rx ry rz
  end
  begin
    id 26
    name R_Toe0
    direction -0.100745 0.952789 -0.286433
    length 4.75286
    axis 171.683 16.6445 96.0359 xyz
    dof rx ry rz
  end
:hierarchy
  begin
    root SpineDummy L_ThighDummy R_ThighDummy
    SpineDummy Spine
    Spine Spine1
    Spine1 Neck
    Neck HeadDummy R_ClavicleDummy L_ClavicleDummy
    HeadDummy Head
    R_ClavicleDummy R_Clavicle
    R_Clavicle R_UpperArm
    R_UpperArm R_Forearm
    R_Forearm R_Hand
    L_ClavicleDummy L_Clavicle
    L_Clavicle L_UpperArm
    L_UpperArm L_Forearm
    L_Forearm L_Hand
    L_ThighDummy L_Thigh
    L_Thigh L_Calf
    L_Calf L_Foot
    L_Foot L_Toe0
    R_ThighDummy R_Thigh
    R_Thigh R_Calf
    R_Calf R_Foot
    R_Foot R_Toe0
  end

:SAMPLES-PER-SECOND 30
:FULLY-SPECIFIED
:DEGREES
283
root  -2.29625 30.782 -32.8115 -94.4239 -8.27742 92.0654
Spine  -5.98579 -2.87749 -8.13323
Spine1  -1.89645 25.9535 11.7976
Neck  3.97569e-016 0 -2.38542e-015
Head  22.0427 -13.5604 19.9367
R_Clavicle  0.380445 -19.3411 0.578528
R_UpperArm  13.0917 5.29166 25.2426
R_Forearm  24.7566 -13.2895 11.2878
R_Hand  -0.924483 8.41467 -18.385
L_Clavicle  -0.44844 15.9318 -4.08819
L_UpperArm  2.73721 13.9471 18.8346
L_Forearm  -23.2447 30.3202 36.1064
L_Hand  -0.179219 -0.0745471 -3.72486
L_Thigh  -5.20332 6.14898 -14.7201
L_Calf  -4.15666 2.15332 -16.2918
L_Foot  0.172 8.03985 -6.69992
L_Toe0  -9.69644 1.48458 1.03474
R_Thigh  2.69774 6.43418 -1.3162
R_Calf  -5.38572 4.46716 14.4689
R_Foot  -1.32332 -2.63555 3.99233
R_Toe0  -1.78853 -0.270536 -17.3236
284
root  -2.07463 30.8094 -34.0585 -94.5306 -9.37036 92.2114
Spine  -5.84179 -2.79312 -8.97074
Spine1  -1.17976 25.0637 14.1656
Neck  3.97569e-016 0 -2.38542e-015
Head  23.0039 -13.6444 19.0592
R_Clavicle  0.384001 -19.0205 0.853218
R_UpperArm  10.9479 6.95996 20.2419
R_Forearm  23.4032 -11.9048 10.0581
R_Hand  -1.01015 8.58485 -19.0021
L_Clavicle  -0.544183 17.3516 -4.19591
L_UpperArm  2.12084 16.2782 21.1247
L_Forearm  -18.2438 32.443 36.5173
L_Hand  -0.135121 0.850965 -2.36905
L_Thigh  -5.28694 7.17238 -12.3834
L_Calf  -6.23881 2.61543 -19.8404
L_Foot  0.634819 7.34298 -4.41986
L_Toe0  -3.05405 0.0857912 -4.2792
R_Thigh  2.07684 6.86897 -4.63468
R_Calf  -4.73874 4.23958 13.7313
R_Foot  -1.49155 -1.9504 6.85316
R_Toe0  -1.78853 -0.270143 -17.3236
285
root  -1.90512 30.9834 -35.2864 -93.3653 -9.77676 91.7631
Spine  -5.67359 -2.8797 -10.4296
Spine1  -0.869501 23.8095 15.0212
Neck  3.97569e-016 0 -2.38542e-015
Head  22.5039 -13.3955 19.8639
R_Clavicle  0.386863 -18.7656 1.03769
R_UpperArm  9.26032 7.7249 16.7283
R_Forearm  21.7337 -11.5681 9.76196
R_Hand  -1.02553 8.77669 -19.1496
L_Clavicle  -0.603769 18.1981 -4.28771
L_UpperArm  -3.9042 18.6917 22.8303
L_Forearm  -9.76705 37.1526 38.101
L_Hand  -0.106722 0.372587 -2.01429
L_Thigh  -4.29728 7.17545 -9.35151
L_Calf  -6.75998 2.57608 -19.5687
L_Foot  1.02725 6.98591 -2.63435
L_Toe0  -1.97089 0.0937985 -4.71592
R_Thigh  1.77673 6.57328 -7.95452
R_Calf  -3.50741 4.44819 14.4199
R_Foot  -1.4485 -1.05651 8.94033
R_Toe0  -1.78853 -0.269804 -17.3236
286
root  -1.76368 31.3154 -36.4672 -91.7429 -9.48563 90.9745
Spine  -4.94506 -2.47832 -11.8074
Spine1  -0.814524 21.7222 13.5565
Neck  3.97569e-016 0 -2.38542e-015
Head  19.9883 -12.7953 22.521
R_Clavicle  0.394049 -18.5742 1.30812
R_UpperArm  8.75587 7.48843 15.3913
R_Forearm  20.4304 -11.7821 9.95031
R_Hand  -0.974135 8.83349 -18.8304
L_Clavicle  -0.64697 18.8396 -4.24291
L_UpperArm  -12.681 20.6254 24.3852
L_Forearm  2.70491 42.1688 41.733
L_Hand  -0.0759091 -0.679814 -1.81495
L_Thigh  -3.04331 6.22569 -5.98606
L_Calf  -5.97766 2.07483 -15.7552
L_Foot  1.34387 7.92587 -2.22345
L_Toe0  -5.14576 0.334957 -3.01711
R_Thigh  1.4207 6.02938 -11.2627
R_Calf  -1.99307 5.19052 16.8287
R_Foot  -1.30679 -0.34333 9.93906
R_Toe0  -1.78853 -0.269543 -17.3236
287
root  -1.6524 31.7591 -37.5841 -90.4738 -8.82976 90.1352
Spine  -3.53862 -1.19884 -12.7469
Spine1  -0.592102 18.3942 10.6856
Neck  3.97569e-016 0 -2.38542e-015
Head  15.9211 -11.761 25.817
R_Clavicle  0.399092 -18.2393 1.51453
R_UpperArm  8.91303 6.78919 15.7561
R_Forearm  20.8019 -12.448 10.5385
R_Hand  -1.00745 8.74335 -19.0592
L_Clavicle  -0.681802 19.3677 -4.19352
L_UpperArm  -18.653 21.943 26.3714
L_Forearm  13.4464 44.1117 45.8393
L_Hand  -0.0383508 -1.33185 -1.13461
L_Thigh  -2.51078 4.96707 -3.21471
L_Calf  -4.39837 1.12471 -8.66863
L_Foot  1.59678 8.4279 -1.70266
L_Toe0  -6.20375 0.537513 -1.43398
R_Thigh  1.24074 5.33172 -14.5974
R_Calf  -0.854465 6.39626 20.7782
R_Foot  -1.26726 -0.27564 9.83822
R_Toe0  -1.78853 -0.269383 -17.3236
288
root  -1.59525 32.1394 -38.6428 -89.637 -7.91588 89.6853
Spine  -1.82062 1.39287 -13.4773
Spine1  0.0209042 13.755 7.63959
Neck  3.97569e-016 0 -2.38542e-015
Head  11.1805 -10.2313 28.6536
R_Clavicle  0.396757 -17.8745 1.50947
R_UpperArm  8.98064 6.12831 17.1646
R_Forearm  22.66 -13.507 11.4828
R_Hand  -1.12472 8.68343 -19.9195
L_Clavicle  -0.68719 19.464 -4.15487
L_UpperArm  -20.589 22.5727 28.7711
L_Forearm  16.9442 43.7077 47.7427
L_Hand  -0.00779763 -1.49485 -0.343155
L_Thigh  -2.74934 4.21027 -1.25056
L_Calf  -2.00972 -0.244526 1.32088
L_Foot  1.35651 7.43668 -1.7709
L_Toe0  -2.53063 0.328478 1.72599
R_Thigh  2.05513 4.64308 -17.5545
R_Calf  -0.616104 7.64689 25.0155
R_Foot  -1.38232 -0.698359 9.47081
R_Toe0  -1.78853 -0.269349 -17.3236
289
root  -1.57808 32.4136 -39.6803 -89.0582 -6.8244 89.5512
Spine  -0.098208 4.96848 -14.1075
Spine1  0.876948 8.02525 5.04936
Neck  3.97569e-016 0 -2.38542e-015
Head  6.60096 -8.33012 30.4371
R_Clavicle  0.392148 -17.8049 1.40713
R_UpperArm  8.3841 5.80937 19.0064
R_Forearm  24.7672 -14.8745 12.7195
R_Hand  -1.19294 8.62619 -20.4217
L_Clavicle  -0.657819 19.1839 -3.80692
L_UpperArm  -20.8375 22.2741 31.1571
L_Forearm  14.5434 42.86 47.5416
L_Hand  -0.00195435 -1.30783 -0.166746
L_Thigh  -3.58799 3.85419 -0.118127
L_Calf  0.601837 -1.9143 13.6827
L_Foot  0.581828 6.40487 -3.86914
L_Toe0  0.88096 -0.126921 0.601633
R_Thigh  3.50603 4.04859 -20.2372
R_Calf  -0.993966 8.83453 29.1331
R_Foot  -1.54548 -1.23131 9.1801
R_Toe0  -1.78853 -0.269464 -17.3236
290
root  -1.56428 32.638 -40.7004 -88.4831 -5.88537 89.4728
Spine  1.36303 8.5422 -14.4301
Spine1  1.70757 2.13962 3.40003
Neck  3.97569e-016 0 -2.38542e-015
Head  2.83329 -6.55175 30.7436
R_Clavicle  0.3907 -17.7362 1.3835
R_UpperArm  6.37471 6.02093 20.3596
R_Forearm  26.9594 -16.7132 14.4177
R_Hand  -1.17675 8.40396 -20.2912
L_Clavicle  -0.633116 19.0981 -3.13188
L_UpperArm  -20.126 21.0485 33.3912
L_Forearm  9.15282 41.5072 45.535
L_Hand  -0.0123461 -0.712804 -0.338193
L_Thigh  -4.40304 3.29508 0.439753
L_Calf  2.90794 -3.6309 26.4436
L_Foot  0.502938 7.21512 -4.8995
L_Toe0  0.497724 0.045135 -6.72349
R_Thigh  4.19356 3.68675 -23.1652
R_Calf  -0.769426 10.2335 33.5468
R_Foot  -1.63824 -1.68992 8.59731
R_Toe0  -1.78853 -0.269753 -17.3236
291
root  -1.55998 32.691 -41.7038 -87.5651 -5.36459 89.839
Spine  2.28595 11.6662 -14.4407
Spine1  2.25463 -2.47269 2.7551
Neck  3.97569e-016 0 -2.38542e-015
Head  0.126517 -5.45525 29.6082
R_Clavicle  0.388396 -16.9599 1.44777
R_UpperArm  2.17694 6.69414 20.5383
R_Forearm  29.7964 -19.121 16.7449
R_Hand  -1.14269 8.07947 -20.0125
L_Clavicle  -0.634816 19.4076 -2.61094
L_UpperArm  -17.5612 19.4598 35.4523
L_Forearm  2.40638 38.8186 42.2293
L_Hand  -0.0111304 -0.06876 -0.233971
L_Thigh  -3.06365 2.48954 2.28039
L_Calf  4.12291 -5.10825 34.164
L_Foot  2.18571 10.8736 -1.55959
L_Toe0  0.505156 0.034446 -6.1361
R_Thigh  3.67801 4.08269 -26.0469
R_Calf  0.68701 11.6324 36.9224
R_Foot  -1.6561 -1.7846 8.47109
R_Toe0  -1.78853 -0.270239 -17.3236
292
root  -1.59833 32.4773 -42.6937 -86.0491 -5.21524 90.5482
Spine  2.69231 13.7747 -13.9787
Spine1  2.42467 -5.14159 2.32739
Neck  3.97569e-016 0 -2.38542e-015
Head  -1.83485 -4.96298 27.6275
R_Clavicle  0.383826 -15.5694 1.51803
R_UpperArm  -3.29316 7.47974 20.0113
R_Forearm  32.1288 -21.7659 19.1668
R_Hand  -1.03361 7.85416 -19.1443
L_Clavicle  -0.640385 19.647 -2.39291
L_UpperArm  -13.3776 18.0965 36.645
L_Forearm  -3.90013 35.1662 39.364
L_Hand  -0.0136341 0.131306 -0.265788
L_Thigh  0.313327 1.81629 5.16197
L_Calf  4.64688 -5.67524 36.0077
L_Foot  2.22868 10.4637 -1.1257
L_Toe0  0.505156 0.034446 -6.1361
R_Thigh  3.13756 5.02878 -28.2731
R_Calf  2.45283 12.3379 37.6983
R_Foot  -1.61225 -1.16481 9.8787
R_Toe0  -1.78853 -0.270946 -17.3236
293
root  -1.7031 32.1062 -43.6541 -83.926 -5.42257 90.6384
Spine  2.86041 14.0233 -12.4637
Spine1  2.36166 -6.25248 1.60042
Neck  3.97569e-016 0 -2.38542e-015
Head  -3.85756 -4.34366 25.1964
R_Clavicle  0.376319 -14.5622 1.49361
R_UpperArm  -5.23687 7.98898 20.0368
R_Forearm  30.2404 -24.8712 20.2749
R_Hand  -0.739827 7.48993 -16.7603
L_Clavicle  -0.627309 19.6306 -2.02687
L_UpperArm  -10.4401 16.6112 35.7456
L_Forearm  -7.47663 32.6002 37.9547
L_Hand  -0.0500951 -0.213801 -1.06557
L_Thigh  0.826774 0.473639 6.93883
L_Calf  5.96668 -4.64628 34.5846
L_Foot  0.79567 11.5699 -6.7543
L_Toe0  0.505156 0.034446 -6.1361
R_Thigh  3.517 5.54265 -30.1734
R_Calf  3.66402 12.089 36.6678
R_Foot  -1.40807 0.173983 12.4402
R_Toe0  -1.79305 -0.272647 -17.3475
294
root  -1.89499 31.6838 -44.6229 -81.6465 -6.11515 89.8445
Spine  3.05538 12.8734 -10.036
Spine1  2.25391 -6.57444 1.33442
Neck  3.97569e-016 0 -2.38542e-015
Head  -6.69555 -3.09895 22.1982
R_Clavicle  0.360632 -14.5343 1.27449
R_UpperArm  -0.41988 7.87404 21.2116
R_Forearm  23.0889 -28.9713 19.7478
R_Hand  -0.389599 6.69328 -13.5417
L_Clavicle  -0.613006 19.7556 -1.43671
L_UpperArm  -9.50028 14.1708 32.288
L_Forearm  -9.28571 31.9081 37.5217
L_Hand  -0.0928688 -1.06104 -2.39989
L_Thigh  2.05397 -1.45385 7.34826
L_Calf  5.89319 -3.65597 30.5766
L_Foot  -0.947582 12.7762 -13.2942
L_Toe0  0.505156 0.034446 -6.1361
R_Thigh  4.82245 5.42641 -32.355
R_Calf  4.22295 10.9071 35.0646
R_Foot  -0.968133 1.9687 15.2864
R_Toe0  -1.76688 -0.271285 -17.3179
